# xmcd
#
# Track frame offsets: 
#        150
#        11505
#        24796
#        42503
#        54847
#        68387
#        82865
#        94028
#        105575
#        117001
#        129808
#        141318
#        153057
#        170613
#        181999
#        195231
#        208412
#        225106
#        238079
#        250921
#
# Disc length: 3501 seconds
#
# Revision: 0
# Processed by: cddbd v1.5.2PL0 Copyright (c) Steve Scherf et al.
# Submitted via: ExactAudioCopyFreeDBPlugin 1.0
#
DISCID=e90dab14
DTITLE=Kenny Parrott - Kenny Parrott Volume 6
DYEAR=2004
DGENRE=
TTITLE0=The Keys In The Mailbox
TTITLE1=By The Time I Get To Phoenix
TTITLE2=Born To Lose
TTITLE3=It Keeps Right On A Hurtin'
TTITLE4=Together Again
TTITLE5=Cold, Cold Heart
TTITLE6=I Walk The Line
TTITLE7=Only You
TTITLE8=Fraulein
TTITLE9=Harbor Lights
TTITLE10=Things
TTITLE11=Take These Chains From My Heart
TTITLE12=And I Love You So
TTITLE13=Please Help Me I'm Fallin'
TTITLE14=Statue Of A Fool
TTITLE15=Walk Through This World With Me
TTITLE16=You Gave Me A Mountain
TTITLE17=Before The Next Teardrop Falls
TTITLE18=Send Me The Pillow
TTITLE19=The End Of The World
EXTD=
EXTT0=
EXTT1=
EXTT2=
EXTT3=
EXTT4=
EXTT5=
EXTT6=
EXTT7=
EXTT8=
EXTT9=
EXTT10=
EXTT11=
EXTT12=
EXTT13=
EXTT14=
EXTT15=
EXTT16=
EXTT17=
EXTT18=
EXTT19=
PLAYORDER=
